<svg width="327" height="77" viewBox="0 0 327 77" fill="none" xmlns="http://www.w3.org/2000/svg">
<g clip-path="url(#clip0_3358_9438)">
<path d="M25.8709 51.587L29.2816 41.3574L30.9305 45.1551L34.9103 54.331L35.0817 44.3246L35.3954 25.5776L35.41 24.8203L34.9504 24.2203L25.2617 11.4918L25.0137 11.1625L29.019 5.19895L39.5394 0L37.7337 4.70869L58.9167 2.07446L54.9917 7.97952L66.5298 13.4675L69.1052 26.0423L75.2445 42.7221L66.672 34.6804L68.1677 49.3113L60.416 54.5212L43.9971 77V62.3617L37.7629 74.0072L32.8967 59.4531L30.0805 67.707L27.4833 55.0664L25.8709 51.587Z" fill="#4D277A"/>
<path d="M23.5395 12.8054L10.7502 22.3179L6.16486 31.7243L0 36.261V43.3918L2.18871 44.8552L10.9435 41.31L12.5121 44.0028L14.5367 39.5721L15.7623 40.1356L12.6215 46.915L10.3343 42.9856L2.76142 46.0553L2.61186 47.4346L6.7704 53.5043L9.71786 52.6555L24.4077 49.1175L29.0222 35.3134L32.9181 44.2881L33.2282 25.5375L23.5395 12.8054ZM16.1381 27.7071L11.1733 28.662L17.641 23.9972L16.1381 27.7071Z" fill="#4D277A"/>
<path d="M143.152 45.9235H139.139L134.032 38.7598L128.943 45.9235H124.931L132.033 35.9244L124.916 25.9216H128.929L134.017 33.0853L139.124 25.9216H143.137L136.064 35.9244L143.152 45.9235Z" fill="#4D277A"/>
<path d="M148.759 35.9207C148.76 37.6088 149.429 39.2275 150.62 40.4211C151.81 41.6148 153.424 42.2858 155.107 42.2868H161.45V37.7427H156.011V34.0841H165.076V45.9052H155.107C152.495 45.8551 150.007 44.7794 148.178 42.9093C146.349 41.0392 145.324 38.524 145.324 35.9042C145.324 33.2845 146.349 30.7693 148.178 28.8992C150.007 27.0291 152.495 25.9534 155.107 25.9033H165.076V29.54H155.107C154.272 29.54 153.445 29.7052 152.674 30.026C151.903 30.3468 151.203 30.8171 150.613 31.4098C150.024 32.0025 149.557 32.706 149.238 33.48C148.92 34.2541 148.758 35.0835 148.759 35.9207Z" fill="#4D277A"/>
<path d="M200.632 25.9216L208.11 45.9235H204.608L203.587 43.1941H193.508L192.486 45.9235H188.984L196.462 25.9216H200.632ZM198.553 29.6974L194.868 39.5757H202.241L198.553 29.6974Z" fill="#4D277A"/>
<path d="M230.047 31.8304C230.047 34.0548 228.369 36.5171 226.308 37.3183L225.385 37.6842L229.493 45.9125H226.075L221.996 37.7281H213.73V45.9125H210.115V25.9216H224.167C225.727 25.9255 227.222 26.5496 228.324 27.6572C229.427 28.7648 230.046 30.2655 230.047 31.8304ZM226.421 31.8304C226.421 31.2278 226.182 30.6499 225.758 30.2238C225.333 29.7977 224.757 29.5583 224.156 29.5583H213.73V34.1024H224.156C224.757 34.1024 225.333 33.863 225.758 33.4369C226.182 33.0108 226.421 32.4329 226.421 31.8304Z" fill="#4D277A"/>
<path d="M251.97 35.9207C251.97 38.573 250.92 41.1167 249.051 42.9925C247.181 44.8682 244.645 45.9225 242.001 45.9235H232.031V25.9216H242.001C244.645 25.9226 247.18 26.9764 249.049 28.8514C250.919 30.7264 251.969 33.2691 251.97 35.9207ZM248.344 35.9207C248.343 34.2336 247.675 32.6159 246.485 31.4229C245.296 30.2299 243.683 29.5593 242.001 29.5583H235.65V42.2868H241.997C243.681 42.2868 245.295 41.6161 246.485 40.4222C247.676 39.2283 248.344 37.6091 248.344 35.9207Z" fill="#4D277A"/>
<path d="M263.009 42.2868V45.9198H253.955V42.2868H256.676V29.5583H253.955V25.9216H263.009V29.5583H260.291V42.2868H263.009Z" fill="#4D277A"/>
<path d="M276.662 25.9216L284.141 45.9198H280.639L279.621 43.1941H269.527L268.506 45.9198H265.004L272.493 25.9216H276.662ZM274.572 29.6974L270.888 39.5757H278.26L274.572 29.6974Z" fill="#4D277A"/>
<path d="M302.442 42.2868V25.9216H306.053V45.9235H301.986L289.751 29.562V45.9235H286.125V25.9216H290.207L302.442 42.2868Z" fill="#4D277A"/>
<path d="M315.842 45.9235V41.7526L323.867 35.8988L315.842 30.1291V25.9216L327.001 33.8353V38.0062L315.842 45.9235Z" fill="#7A5D9E"/>
<path d="M105.324 45.9235L94.2051 38.0501V33.8755L105.324 25.9216V30.1327L97.3568 35.9427L105.324 41.7526V45.9235Z" fill="#7A5D9E"/>
<path d="M110 45.9235L115.37 25.9216H119.382L113.991 45.9235H110Z" fill="#7A5D9E"/>
<path d="M184.544 35.9246V25.9255H188.17V35.9246C188.17 38.5766 187.119 41.1199 185.25 42.9951C183.38 44.8703 180.844 45.9237 178.2 45.9237C175.556 45.9237 173.02 44.8703 171.15 42.9951C169.281 41.1199 168.23 38.5766 168.23 35.9246V25.9255H171.853V35.9246C171.892 37.5861 172.578 39.1661 173.764 40.3271C174.95 41.4882 176.541 42.1381 178.198 42.1381C179.855 42.1381 181.447 41.4882 182.632 40.3271C183.818 39.1661 184.504 37.5861 184.544 35.9246Z" fill="#4D277A"/>
</g>
<defs>
<clipPath id="clip0_3358_9438">
<rect width="327" height="77" fill="white"/>
</clipPath>
</defs>
</svg>
